<svg xmlns="http://www.w3.org/2000/svg"><defs id="SvgjsDefs2128"/><g id="SvgjsG2129" featurekey="root" fill="#cccccc"/><g id="SvgjsG2130" featurekey="container1" fill="#ffffff" transform="matrix(0.5612932400889811,0,0,0.5612932400889811,0,0)"><defs xmlns="http://www.w3.org/2000/svg"/><path xmlns="http://www.w3.org/2000/svg" d="M100.215,200.43c55.259,0,100.215-44.956,100.215-100.215S155.474,0,100.215,0S0,44.956,0,100.215  S44.956,200.43,100.215,200.43z M100.215,10c49.745,0,90.215,40.47,90.215,90.215s-40.47,90.215-90.215,90.215  C50.47,190.43,10,149.959,10,100.215S50.47,10,100.215,10z"/></g><g id="SvgjsG2131" featurekey="symbol1" fill="#ffffff" transform="matrix(0.7376496085569876,0,0,0.7376496085569876,18.871880886347867,19.11678056905138)"><g id="SvgjsG2132"><g><path d="M50.333,2.553c-15.686,0-29.611,7.656-38.255,19.422c-1.293,1.632-2.424,3.398-3.371,5.277   C4.998,34.01,2.885,41.763,2.885,50.001c0,26.163,21.285,47.448,47.448,47.448s47.448-21.285,47.448-47.448   S76.496,2.553,50.333,2.553z M44.928,61.67c-7.897,0-14.322-6.506-14.322-14.503s6.425-14.503,14.322-14.503   S59.25,39.17,59.25,47.167S52.825,61.67,44.928,61.67z M44.928,28.412c-10.242,0-18.574,8.413-18.574,18.755   s8.332,18.755,18.574,18.755c0.116,0,0.228-0.016,0.343-0.018c-2.924,1.144-6.097,1.777-9.415,1.777   c-14.448,0-26.203-11.895-26.203-26.515c0-4.277,1.013-8.317,2.798-11.899c0.911-1.658,1.931-3.248,3.045-4.766   c4.808-6.003,12.147-9.85,20.36-9.85c14.011,0,25.488,11.185,26.171,25.192C59.196,33.132,52.599,28.412,44.928,28.412z    M50.333,93.197c-23.313,0-42.36-18.568-43.158-41.69c4.214,11.893,15.478,20.427,28.681,20.427   c16.794,0,30.456-13.802,30.456-30.767S52.649,10.4,35.855,10.4c-1.047,0-2.082,0.054-3.103,0.158   c5.374-2.405,11.321-3.754,17.58-3.754c23.818,0,43.196,19.378,43.196,43.196S74.151,93.197,50.333,93.197z"/></g></g></g><g id="SvgjsG2133" featurekey="text1" fill="#ffffff" transform="matrix(2.250633488936305,0,0,2.250633488936305,131.96470743604877,14.856303300749595)"><path d="M0.52 9.36 c0 -2.24 1.1 -3.52 3.24 -3.52 s3.24 1.28 3.24 3.52 l0 0.44 l-2.08 0 l0 -0.58 c0 -1 -0.4 -1.38 -1.1 -1.38 s-1.1 0.38 -1.1 1.38 c0 1.02 0.44 1.78 1.88 3.04 c1.84 1.62 2.42 2.78 2.42 4.38 c0 2.24 -1.12 3.52 -3.28 3.52 s-3.28 -1.28 -3.28 -3.52 l0 -0.86 l2.08 0 l0 1 c0 1 0.44 1.36 1.14 1.36 s1.14 -0.36 1.14 -1.36 c0 -1.02 -0.44 -1.78 -1.88 -3.04 c-1.84 -1.62 -2.42 -2.78 -2.42 -4.38 z M7.640000000000001 8 l0 -2 l6.8 0 l0 2 l-2.3 0 l0 12 l-2.2 0 l0 -12 l-2.3 0 z M20.28 6 l2.24 14 l-2.22 0 l-0.38 -2.54 l-2.7 0 l-0.38 2.54 l-2.02 0 l2.24 -14 l3.22 0 z M18.540000000000003 8.48 l-1.04 7.08 l2.12 0 l-1.04 -7.08 l-0.04 0 z M28.560000000000002 20 l-2.14 -5.58 l-0.68 1.28 l0 4.3 l-2.2 0 l0 -14 l2.2 0 l0 6.06 l0.04 0 l2.84 -6.06 l2.2 0 l-3.06 6.24 l3.06 7.76 l-2.26 0 z M34.02 8 l0 3.9 l3.02 0 l0 2 l-3.02 0 l0 4.1 l3.8 0 l0 2 l-6 0 l0 -14 l6 0 l0 2 l-3.8 0 z  M45.52 6 c2.2 0 3.28 1.22 3.28 3.46 l0 1.82 c0 2.24 -1.08 3.46 -3.28 3.46 l-1.04 0 l0 5.26 l-2.2 0 l0 -14 l3.24 0 z M45.52 8 l-1.04 0 l0 4.74 l1.04 0 c0.7 0 1.08 -0.32 1.08 -1.32 l0 -2.1 c0 -1 -0.38 -1.32 -1.08 -1.32 z M51.84 9.22 l0 7.56 c0 1 0.44 1.38 1.14 1.38 s1.14 -0.38 1.14 -1.38 l0 -7.56 c0 -1 -0.44 -1.38 -1.14 -1.38 s-1.14 0.38 -1.14 1.38 z M49.64 16.64 l0 -7.28 c0 -2.24 1.18 -3.52 3.34 -3.52 s3.34 1.28 3.34 3.52 l0 7.28 c0 2.24 -1.18 3.52 -3.34 3.52 s-3.34 -1.28 -3.34 -3.52 z M59.760000000000005 9.22 l0 7.56 c0 1 0.44 1.38 1.14 1.38 s1.14 -0.38 1.14 -1.38 l0 -7.56 c0 -1 -0.44 -1.38 -1.14 -1.38 s-1.14 0.38 -1.14 1.38 z M57.56 16.64 l0 -7.28 c0 -2.24 1.18 -3.52 3.34 -3.52 s3.34 1.28 3.34 3.52 l0 7.28 c0 2.24 -1.18 3.52 -3.34 3.52 s-3.34 -1.28 -3.34 -3.52 z M65.66 20 l0 -14 l2.2 0 l0 12 l3.62 0 l0 2 l-5.82 0 z"/></g><g id="SvgjsG2134" featurekey="text3" fill="#ffffff" transform="matrix(1.0474859163230799,0,0,1.0474859163230799,152.16201131688956,68.88268358728017)"><path d="M0.8 20 l0 -14 l2.2 0 l0 14 l-2.2 0 z M9.3 20 l-2.7 -10.14 l-0.04 0 l0 10.14 l-1.98 0 l0 -14 l2.76 0 l2.22 8.38 l0.04 0 l0 -8.38 l1.96 0 l0 14 l-2.26 0 z M12.860000000000001 9.36 c0 -2.24 1.1 -3.52 3.24 -3.52 s3.24 1.28 3.24 3.52 l0 0.44 l-2.08 0 l0 -0.58 c0 -1 -0.4 -1.38 -1.1 -1.38 s-1.1 0.38 -1.1 1.38 c0 1.02 0.44 1.78 1.88 3.04 c1.84 1.62 2.42 2.78 2.42 4.38 c0 2.24 -1.12 3.52 -3.28 3.52 s-3.28 -1.28 -3.28 -3.52 l0 -0.86 l2.08 0 l0 1 c0 1 0.44 1.36 1.14 1.36 s1.14 -0.36 1.14 -1.36 c0 -1.02 -0.44 -1.78 -1.88 -3.04 c-1.84 -1.62 -2.42 -2.78 -2.42 -4.38 z M19.98 8 l0 -2 l6.8 0 l0 2 l-2.3 0 l0 12 l-2.2 0 l0 -12 l-2.3 0 z M32.620000000000005 6 l2.24 14 l-2.22 0 l-0.38 -2.54 l-2.7 0 l-0.38 2.54 l-2.02 0 l2.24 -14 l3.22 0 z M30.880000000000003 8.48 l-1.04 7.08 l2.12 0 l-1.04 -7.08 l-0.04 0 z M40.58 20 l-2.7 -10.14 l-0.04 0 l0 10.14 l-1.98 0 l0 -14 l2.76 0 l2.22 8.38 l0.04 0 l0 -8.38 l1.96 0 l0 14 l-2.26 0 z M43.779999999999994 8 l0 -2 l6.8 0 l0 2 l-2.3 0 l0 12 l-2.2 0 l0 -12 l-2.3 0 z  M56.839999999999996 8 l0 4.22 l2.84 0 l0 2 l-2.84 0 l0 5.78 l-2.2 0 l0 -14 l5.82 0 l0 2 l-3.62 0 z M63.72 8 l0 3.9 l3.02 0 l0 2 l-3.02 0 l0 4.1 l3.8 0 l0 2 l-6 0 l0 -14 l6 0 l0 2 l-3.8 0 z M71.08 8 l0 3.9 l3.02 0 l0 2 l-3.02 0 l0 4.1 l3.8 0 l0 2 l-6 0 l0 -14 l6 0 l0 2 l-3.8 0 z M76.24 20 l0 -14 l3.48 0 c2.2 0 3.28 1.22 3.28 3.46 l0 7.08 c0 2.24 -1.08 3.46 -3.28 3.46 l-3.48 0 z M79.67999999999999 8 l-1.24 0 l0 10 l1.24 0 c0.7 0 1.12 -0.36 1.12 -1.36 l0 -7.28 c0 -1 -0.42 -1.36 -1.12 -1.36 z M87.72 6 c2.28 0 3.26 1.06 3.26 3.22 l0 0.5 c0 1.44 -0.44 2.34 -1.42 2.8 l0 0.04 c1.18 0.46 1.64 1.5 1.64 2.98 l0 1.14 c0 2.16 -1.14 3.32 -3.34 3.32 l-3.46 0 l0 -14 l3.32 0 z M87.58 13.7 l-0.98 0 l0 4.3 l1.26 0 c0.74 0 1.14 -0.34 1.14 -1.38 l0 -1.22 c0 -1.3 -0.42 -1.7 -1.42 -1.7 z M87.66 8 l-1.06 0 l0 3.7 l0.86 0 c0.82 0 1.32 -0.36 1.32 -1.48 l0 -0.78 c0 -1 -0.34 -1.44 -1.12 -1.44 z M97.4 6 l2.24 14 l-2.22 0 l-0.38 -2.54 l-2.7 0 l-0.38 2.54 l-2.02 0 l2.24 -14 l3.22 0 z M95.66 8.48 l-1.04 7.08 l2.12 0 l-1.04 -7.08 l-0.04 0 z M104.96 14.780000000000001 l2.08 0 l0 1.86 c0 2.24 -1.12 3.52 -3.28 3.52 s-3.28 -1.28 -3.28 -3.52 l0 -7.28 c0 -2.24 1.12 -3.52 3.28 -3.52 s3.28 1.28 3.28 3.52 l0 1.36 l-2.08 0 l0 -1.5 c0 -1 -0.44 -1.38 -1.14 -1.38 s-1.14 0.38 -1.14 1.38 l0 7.56 c0 1 0.44 1.36 1.14 1.36 s1.14 -0.36 1.14 -1.36 l0 -2 z M113.4 20 l-2.14 -5.58 l-0.68 1.28 l0 4.3 l-2.2 0 l0 -14 l2.2 0 l0 6.06 l0.04 0 l2.84 -6.06 l2.2 0 l-3.06 6.24 l3.06 7.76 l-2.26 0 z"/></g></svg>